<svg xmlns="http://www.w3.org/2000/svg" xmlns:xlink="http://www.w3.org/1999/xlink" width="500" zoomAndPan="magnify" viewBox="0 0 375 374.999991" height="500" preserveAspectRatio="xMidYMid meet" version="1.0"><defs><g/><radialGradient gradientTransform="matrix(1, 0, 0, 1, 0.0000045, 0)" gradientUnits="userSpaceOnUse" r="530.330095" cx="0" id="08d8e895b0" cy="0" fx="0" fy="0"><stop stop-opacity="1" stop-color="rgb(0%, 49.069214%, 0.260925%)" offset="0"/><stop stop-opacity="1" stop-color="rgb(0%, 49.211121%, 0.785828%)" offset="0.00390625"/><stop stop-opacity="1" stop-color="rgb(0%, 49.351501%, 1.309204%)" offset="0.0078125"/><stop stop-opacity="1" stop-color="rgb(0%, 49.493408%, 1.834106%)" offset="0.0117188"/><stop stop-opacity="1" stop-color="rgb(0%, 49.635315%, 2.357483%)" offset="0.015625"/><stop stop-opacity="1" stop-color="rgb(0%, 49.777222%, 2.882385%)" offset="0.0195312"/><stop stop-opacity="1" stop-color="rgb(0%, 49.917603%, 3.405762%)" offset="0.0234375"/><stop stop-opacity="1" stop-color="rgb(0%, 50.059509%, 3.930664%)" offset="0.0273438"/><stop stop-opacity="1" stop-color="rgb(0%, 50.201416%, 4.454041%)" offset="0.03125"/><stop stop-opacity="1" stop-color="rgb(0%, 50.341797%, 4.978943%)" offset="0.0351562"/><stop stop-opacity="1" stop-color="rgb(0%, 50.483704%, 5.503845%)" offset="0.0390625"/><stop stop-opacity="1" stop-color="rgb(0%, 50.62561%, 6.027222%)" offset="0.0429688"/><stop stop-opacity="1" stop-color="rgb(0%, 50.765991%, 6.552124%)" offset="0.046875"/><stop stop-opacity="1" stop-color="rgb(0%, 50.907898%, 7.0755%)" offset="0.0507812"/><stop stop-opacity="1" stop-color="rgb(0%, 51.049805%, 7.600403%)" offset="0.0546875"/><stop stop-opacity="1" stop-color="rgb(0%, 51.190186%, 8.123779%)" offset="0.0585938"/><stop stop-opacity="1" stop-color="rgb(0%, 51.332092%, 8.648682%)" offset="0.0625"/><stop stop-opacity="1" stop-color="rgb(0%, 51.473999%, 9.172058%)" offset="0.0664062"/><stop stop-opacity="1" stop-color="rgb(0%, 51.61438%, 9.69696%)" offset="0.0703125"/><stop stop-opacity="1" stop-color="rgb(0%, 51.756287%, 10.221863%)" offset="0.0742188"/><stop stop-opacity="1" stop-color="rgb(0%, 51.898193%, 10.745239%)" offset="0.078125"/><stop stop-opacity="1" stop-color="rgb(0%, 52.038574%, 11.270142%)" offset="0.0820312"/><stop stop-opacity="1" stop-color="rgb(0%, 52.180481%, 11.793518%)" offset="0.0859375"/><stop stop-opacity="1" stop-color="rgb(0%, 52.322388%, 12.31842%)" offset="0.0898438"/><stop stop-opacity="1" stop-color="rgb(0%, 52.462769%, 12.841797%)" offset="0.09375"/><stop stop-opacity="1" stop-color="rgb(0%, 52.604675%, 13.366699%)" offset="0.0976562"/><stop stop-opacity="1" stop-color="rgb(0%, 52.746582%, 13.890076%)" offset="0.101562"/><stop stop-opacity="1" stop-color="rgb(0%, 52.886963%, 14.414978%)" offset="0.105469"/><stop stop-opacity="1" stop-color="rgb(0%, 53.02887%, 14.93988%)" offset="0.109375"/><stop stop-opacity="1" stop-color="rgb(0%, 53.170776%, 15.463257%)" offset="0.113281"/><stop stop-opacity="1" stop-color="rgb(0%, 53.311157%, 15.988159%)" offset="0.117188"/><stop stop-opacity="1" stop-color="rgb(0%, 53.453064%, 16.511536%)" offset="0.121094"/><stop stop-opacity="1" stop-color="rgb(0%, 53.594971%, 17.036438%)" offset="0.125"/><stop stop-opacity="1" stop-color="rgb(0%, 53.735352%, 17.559814%)" offset="0.128906"/><stop stop-opacity="1" stop-color="rgb(0%, 53.877258%, 18.084717%)" offset="0.132812"/><stop stop-opacity="1" stop-color="rgb(0%, 54.019165%, 18.608093%)" offset="0.136719"/><stop stop-opacity="1" stop-color="rgb(0%, 54.159546%, 19.132996%)" offset="0.140625"/><stop stop-opacity="1" stop-color="rgb(0%, 54.301453%, 19.656372%)" offset="0.144531"/><stop stop-opacity="1" stop-color="rgb(0%, 54.443359%, 20.181274%)" offset="0.148438"/><stop stop-opacity="1" stop-color="rgb(0%, 54.58374%, 20.706177%)" offset="0.152344"/><stop stop-opacity="1" stop-color="rgb(0%, 54.725647%, 21.229553%)" offset="0.15625"/><stop stop-opacity="1" stop-color="rgb(0%, 54.867554%, 21.754456%)" offset="0.160156"/><stop stop-opacity="1" stop-color="rgb(0%, 55.007935%, 22.277832%)" offset="0.164062"/><stop stop-opacity="1" stop-color="rgb(0%, 55.149841%, 22.802734%)" offset="0.167969"/><stop stop-opacity="1" stop-color="rgb(0%, 55.291748%, 23.326111%)" offset="0.171875"/><stop stop-opacity="1" stop-color="rgb(0%, 55.432129%, 23.851013%)" offset="0.175781"/><stop stop-opacity="1" stop-color="rgb(0%, 55.574036%, 24.37439%)" offset="0.179688"/><stop stop-opacity="1" stop-color="rgb(0%, 55.715942%, 24.899292%)" offset="0.183594"/><stop stop-opacity="1" stop-color="rgb(0%, 55.856323%, 25.424194%)" offset="0.1875"/><stop stop-opacity="1" stop-color="rgb(0%, 55.99823%, 25.947571%)" offset="0.191406"/><stop stop-opacity="1" stop-color="rgb(0%, 56.140137%, 26.472473%)" offset="0.195312"/><stop stop-opacity="1" stop-color="rgb(0%, 56.280518%, 26.99585%)" offset="0.199219"/><stop stop-opacity="1" stop-color="rgb(0%, 56.422424%, 27.520752%)" offset="0.203125"/><stop stop-opacity="1" stop-color="rgb(0%, 56.564331%, 28.044128%)" offset="0.207031"/><stop stop-opacity="1" stop-color="rgb(0%, 56.704712%, 28.569031%)" offset="0.210938"/><stop stop-opacity="1" stop-color="rgb(0%, 56.846619%, 29.092407%)" offset="0.214844"/><stop stop-opacity="1" stop-color="rgb(0%, 56.988525%, 29.61731%)" offset="0.21875"/><stop stop-opacity="1" stop-color="rgb(0%, 57.128906%, 30.142212%)" offset="0.222656"/><stop stop-opacity="1" stop-color="rgb(0%, 57.270813%, 30.665588%)" offset="0.226562"/><stop stop-opacity="1" stop-color="rgb(0%, 57.41272%, 31.190491%)" offset="0.230469"/><stop stop-opacity="1" stop-color="rgb(0%, 57.553101%, 31.713867%)" offset="0.234375"/><stop stop-opacity="1" stop-color="rgb(0%, 57.695007%, 32.23877%)" offset="0.238281"/><stop stop-opacity="1" stop-color="rgb(0%, 57.836914%, 32.762146%)" offset="0.242188"/><stop stop-opacity="1" stop-color="rgb(0%, 57.977295%, 33.287048%)" offset="0.246094"/><stop stop-opacity="1" stop-color="rgb(0%, 58.119202%, 33.810425%)" offset="0.25"/><stop stop-opacity="1" stop-color="rgb(0%, 58.261108%, 34.335327%)" offset="0.253906"/><stop stop-opacity="1" stop-color="rgb(0%, 58.401489%, 34.858704%)" offset="0.257812"/><stop stop-opacity="1" stop-color="rgb(0%, 58.543396%, 35.383606%)" offset="0.261719"/><stop stop-opacity="1" stop-color="rgb(0%, 58.685303%, 35.908508%)" offset="0.265625"/><stop stop-opacity="1" stop-color="rgb(0%, 58.827209%, 36.431885%)" offset="0.269531"/><stop stop-opacity="1" stop-color="rgb(0%, 58.96759%, 36.956787%)" offset="0.273438"/><stop stop-opacity="1" stop-color="rgb(0%, 59.109497%, 37.480164%)" offset="0.277344"/><stop stop-opacity="1" stop-color="rgb(0%, 59.251404%, 38.005066%)" offset="0.28125"/><stop stop-opacity="1" stop-color="rgb(0%, 59.391785%, 38.528442%)" offset="0.285156"/><stop stop-opacity="1" stop-color="rgb(0%, 59.533691%, 39.053345%)" offset="0.289062"/><stop stop-opacity="1" stop-color="rgb(0%, 59.675598%, 39.576721%)" offset="0.292969"/><stop stop-opacity="1" stop-color="rgb(0%, 59.815979%, 40.101624%)" offset="0.296875"/><stop stop-opacity="1" stop-color="rgb(0%, 59.957886%, 40.626526%)" offset="0.300781"/><stop stop-opacity="1" stop-color="rgb(0%, 60.099792%, 41.149902%)" offset="0.304688"/><stop stop-opacity="1" stop-color="rgb(0%, 60.240173%, 41.674805%)" offset="0.308594"/><stop stop-opacity="1" stop-color="rgb(0%, 60.38208%, 42.198181%)" offset="0.3125"/><stop stop-opacity="1" stop-color="rgb(0%, 60.523987%, 42.723083%)" offset="0.316406"/><stop stop-opacity="1" stop-color="rgb(0%, 60.664368%, 43.24646%)" offset="0.320312"/><stop stop-opacity="1" stop-color="rgb(0%, 60.806274%, 43.771362%)" offset="0.324219"/><stop stop-opacity="1" stop-color="rgb(0%, 60.948181%, 44.294739%)" offset="0.328125"/><stop stop-opacity="1" stop-color="rgb(0%, 61.088562%, 44.819641%)" offset="0.332031"/><stop stop-opacity="1" stop-color="rgb(0%, 61.230469%, 45.344543%)" offset="0.335938"/><stop stop-opacity="1" stop-color="rgb(0%, 61.372375%, 45.86792%)" offset="0.339844"/><stop stop-opacity="1" stop-color="rgb(0%, 61.512756%, 46.392822%)" offset="0.34375"/><stop stop-opacity="1" stop-color="rgb(0%, 61.654663%, 46.916199%)" offset="0.347656"/><stop stop-opacity="1" stop-color="rgb(0%, 61.79657%, 47.441101%)" offset="0.351562"/><stop stop-opacity="1" stop-color="rgb(0%, 61.936951%, 47.964478%)" offset="0.355469"/><stop stop-opacity="1" stop-color="rgb(0%, 62.078857%, 48.48938%)" offset="0.359375"/><stop stop-opacity="1" stop-color="rgb(0%, 62.220764%, 49.012756%)" offset="0.363281"/><stop stop-opacity="1" stop-color="rgb(0%, 62.361145%, 49.537659%)" offset="0.367188"/><stop stop-opacity="1" stop-color="rgb(0%, 62.503052%, 50.061035%)" offset="0.371094"/><stop stop-opacity="1" stop-color="rgb(0%, 62.644958%, 50.585938%)" offset="0.375"/><stop stop-opacity="1" stop-color="rgb(0%, 62.785339%, 51.11084%)" offset="0.378906"/><stop stop-opacity="1" stop-color="rgb(0%, 62.927246%, 51.634216%)" offset="0.382812"/><stop stop-opacity="1" stop-color="rgb(0%, 63.069153%, 52.159119%)" offset="0.386719"/><stop stop-opacity="1" stop-color="rgb(0%, 63.209534%, 52.682495%)" offset="0.390625"/><stop stop-opacity="1" stop-color="rgb(0%, 63.35144%, 53.207397%)" offset="0.394531"/><stop stop-opacity="1" stop-color="rgb(0%, 63.493347%, 53.730774%)" offset="0.398438"/><stop stop-opacity="1" stop-color="rgb(0%, 63.633728%, 54.255676%)" offset="0.402344"/><stop stop-opacity="1" stop-color="rgb(0%, 63.775635%, 54.779053%)" offset="0.40625"/><stop stop-opacity="1" stop-color="rgb(0%, 63.917542%, 55.303955%)" offset="0.410156"/><stop stop-opacity="1" stop-color="rgb(0%, 64.057922%, 55.828857%)" offset="0.414062"/><stop stop-opacity="1" stop-color="rgb(0%, 64.199829%, 56.352234%)" offset="0.417969"/><stop stop-opacity="1" stop-color="rgb(0%, 64.341736%, 56.877136%)" offset="0.421875"/><stop stop-opacity="1" stop-color="rgb(0%, 64.482117%, 57.400513%)" offset="0.425781"/><stop stop-opacity="1" stop-color="rgb(0%, 64.624023%, 57.925415%)" offset="0.429688"/><stop stop-opacity="1" stop-color="rgb(0%, 64.76593%, 58.448792%)" offset="0.433594"/><stop stop-opacity="1" stop-color="rgb(0%, 64.906311%, 58.973694%)" offset="0.4375"/><stop stop-opacity="1" stop-color="rgb(0%, 65.048218%, 59.49707%)" offset="0.441406"/><stop stop-opacity="1" stop-color="rgb(0%, 65.190125%, 60.021973%)" offset="0.445312"/><stop stop-opacity="1" stop-color="rgb(0%, 65.330505%, 60.546875%)" offset="0.449219"/><stop stop-opacity="1" stop-color="rgb(0%, 65.472412%, 61.070251%)" offset="0.453125"/><stop stop-opacity="1" stop-color="rgb(0%, 65.614319%, 61.595154%)" offset="0.457031"/><stop stop-opacity="1" stop-color="rgb(0%, 65.7547%, 62.11853%)" offset="0.460938"/><stop stop-opacity="1" stop-color="rgb(0%, 65.896606%, 62.643433%)" offset="0.464844"/><stop stop-opacity="1" stop-color="rgb(0%, 66.038513%, 63.166809%)" offset="0.46875"/><stop stop-opacity="1" stop-color="rgb(0%, 66.178894%, 63.691711%)" offset="0.472656"/><stop stop-opacity="1" stop-color="rgb(0%, 66.320801%, 64.215088%)" offset="0.476562"/><stop stop-opacity="1" stop-color="rgb(0%, 66.462708%, 64.73999%)" offset="0.480469"/><stop stop-opacity="1" stop-color="rgb(0%, 66.603088%, 65.264893%)" offset="0.484375"/><stop stop-opacity="1" stop-color="rgb(0%, 66.744995%, 65.788269%)" offset="0.488281"/><stop stop-opacity="1" stop-color="rgb(0%, 66.886902%, 66.313171%)" offset="0.492188"/><stop stop-opacity="1" stop-color="rgb(0%, 67.027283%, 66.836548%)" offset="0.496094"/><stop stop-opacity="1" stop-color="rgb(0.390625%, 66.836548%, 67.227173%)" offset="0.5"/><stop stop-opacity="1" stop-color="rgb(1.171875%, 66.313171%, 67.485046%)" offset="0.503906"/><stop stop-opacity="1" stop-color="rgb(1.953125%, 65.788269%, 67.741394%)" offset="0.507812"/><stop stop-opacity="1" stop-color="rgb(2.734375%, 65.264893%, 67.999268%)" offset="0.511719"/><stop stop-opacity="1" stop-color="rgb(3.515625%, 64.73999%, 68.255615%)" offset="0.515625"/><stop stop-opacity="1" stop-color="rgb(4.296875%, 64.215088%, 68.511963%)" offset="0.519531"/><stop stop-opacity="1" stop-color="rgb(5.078125%, 63.691711%, 68.769836%)" offset="0.523438"/><stop stop-opacity="1" stop-color="rgb(5.859375%, 63.166809%, 69.026184%)" offset="0.527344"/><stop stop-opacity="1" stop-color="rgb(6.640625%, 62.643433%, 69.284058%)" offset="0.53125"/><stop stop-opacity="1" stop-color="rgb(7.421875%, 62.11853%, 69.540405%)" offset="0.535156"/><stop stop-opacity="1" stop-color="rgb(8.203125%, 61.595154%, 69.798279%)" offset="0.539062"/><stop stop-opacity="1" stop-color="rgb(8.984375%, 61.070251%, 70.054626%)" offset="0.542969"/><stop stop-opacity="1" stop-color="rgb(9.765625%, 60.546875%, 70.3125%)" offset="0.546875"/><stop stop-opacity="1" stop-color="rgb(10.546875%, 60.021973%, 70.568848%)" offset="0.550781"/><stop stop-opacity="1" stop-color="rgb(11.328125%, 59.49707%, 70.825195%)" offset="0.554688"/><stop stop-opacity="1" stop-color="rgb(12.109375%, 58.973694%, 71.083069%)" offset="0.558594"/><stop stop-opacity="1" stop-color="rgb(12.890625%, 58.448792%, 71.339417%)" offset="0.5625"/><stop stop-opacity="1" stop-color="rgb(13.671875%, 57.925415%, 71.59729%)" offset="0.566406"/><stop stop-opacity="1" stop-color="rgb(14.453125%, 57.400513%, 71.853638%)" offset="0.570312"/><stop stop-opacity="1" stop-color="rgb(15.234375%, 56.877136%, 72.111511%)" offset="0.574219"/><stop stop-opacity="1" stop-color="rgb(16.015625%, 56.352234%, 72.367859%)" offset="0.578125"/><stop stop-opacity="1" stop-color="rgb(16.796875%, 55.828857%, 72.625732%)" offset="0.582031"/><stop stop-opacity="1" stop-color="rgb(17.578125%, 55.303955%, 72.88208%)" offset="0.585938"/><stop stop-opacity="1" stop-color="rgb(18.359375%, 54.779053%, 73.138428%)" offset="0.589844"/><stop stop-opacity="1" stop-color="rgb(19.140625%, 54.255676%, 73.396301%)" offset="0.59375"/><stop stop-opacity="1" stop-color="rgb(19.921875%, 53.730774%, 73.652649%)" offset="0.597656"/><stop stop-opacity="1" stop-color="rgb(20.703125%, 53.207397%, 73.910522%)" offset="0.601562"/><stop stop-opacity="1" stop-color="rgb(21.484375%, 52.682495%, 74.16687%)" offset="0.605469"/><stop stop-opacity="1" stop-color="rgb(22.265625%, 52.159119%, 74.424744%)" offset="0.609375"/><stop stop-opacity="1" stop-color="rgb(23.046875%, 51.634216%, 74.681091%)" offset="0.613281"/><stop stop-opacity="1" stop-color="rgb(23.828125%, 51.11084%, 74.938965%)" offset="0.617188"/><stop stop-opacity="1" stop-color="rgb(24.609375%, 50.585938%, 75.195312%)" offset="0.621094"/><stop stop-opacity="1" stop-color="rgb(25.390625%, 50.061035%, 75.45166%)" offset="0.625"/><stop stop-opacity="1" stop-color="rgb(26.171875%, 49.537659%, 75.709534%)" offset="0.628906"/><stop stop-opacity="1" stop-color="rgb(26.953125%, 49.012756%, 75.965881%)" offset="0.632812"/><stop stop-opacity="1" stop-color="rgb(27.734375%, 48.48938%, 76.223755%)" offset="0.636719"/><stop stop-opacity="1" stop-color="rgb(28.515625%, 47.964478%, 76.480103%)" offset="0.640625"/><stop stop-opacity="1" stop-color="rgb(29.296875%, 47.441101%, 76.737976%)" offset="0.644531"/><stop stop-opacity="1" stop-color="rgb(30.078125%, 46.916199%, 76.994324%)" offset="0.648438"/><stop stop-opacity="1" stop-color="rgb(30.859375%, 46.392822%, 77.252197%)" offset="0.652344"/><stop stop-opacity="1" stop-color="rgb(31.640625%, 45.86792%, 77.508545%)" offset="0.65625"/><stop stop-opacity="1" stop-color="rgb(32.421875%, 45.344543%, 77.766418%)" offset="0.660156"/><stop stop-opacity="1" stop-color="rgb(33.203125%, 44.819641%, 78.022766%)" offset="0.664062"/><stop stop-opacity="1" stop-color="rgb(33.984375%, 44.294739%, 78.279114%)" offset="0.667969"/><stop stop-opacity="1" stop-color="rgb(34.765625%, 43.771362%, 78.536987%)" offset="0.671875"/><stop stop-opacity="1" stop-color="rgb(35.546875%, 43.24646%, 78.793335%)" offset="0.675781"/><stop stop-opacity="1" stop-color="rgb(36.328125%, 42.723083%, 79.051208%)" offset="0.679688"/><stop stop-opacity="1" stop-color="rgb(37.109375%, 42.198181%, 79.307556%)" offset="0.683594"/><stop stop-opacity="1" stop-color="rgb(37.890625%, 41.674805%, 79.56543%)" offset="0.6875"/><stop stop-opacity="1" stop-color="rgb(38.671875%, 41.149902%, 79.821777%)" offset="0.691406"/><stop stop-opacity="1" stop-color="rgb(39.453125%, 40.626526%, 80.079651%)" offset="0.695312"/><stop stop-opacity="1" stop-color="rgb(40.234375%, 40.101624%, 80.335999%)" offset="0.699219"/><stop stop-opacity="1" stop-color="rgb(41.015625%, 39.576721%, 80.592346%)" offset="0.703125"/><stop stop-opacity="1" stop-color="rgb(41.796875%, 39.053345%, 80.85022%)" offset="0.707031"/><stop stop-opacity="1" stop-color="rgb(42.578125%, 38.528442%, 81.106567%)" offset="0.710938"/><stop stop-opacity="1" stop-color="rgb(43.359375%, 38.005066%, 81.364441%)" offset="0.714844"/><stop stop-opacity="1" stop-color="rgb(44.140625%, 37.480164%, 81.620789%)" offset="0.71875"/><stop stop-opacity="1" stop-color="rgb(44.921875%, 36.956787%, 81.878662%)" offset="0.722656"/><stop stop-opacity="1" stop-color="rgb(45.703125%, 36.431885%, 82.13501%)" offset="0.726562"/><stop stop-opacity="1" stop-color="rgb(46.484375%, 35.908508%, 82.392883%)" offset="0.730469"/><stop stop-opacity="1" stop-color="rgb(47.265625%, 35.383606%, 82.649231%)" offset="0.734375"/><stop stop-opacity="1" stop-color="rgb(48.046875%, 34.858704%, 82.905579%)" offset="0.738281"/><stop stop-opacity="1" stop-color="rgb(48.828125%, 34.335327%, 83.163452%)" offset="0.742188"/><stop stop-opacity="1" stop-color="rgb(49.609375%, 33.810425%, 83.4198%)" offset="0.746094"/><stop stop-opacity="1" stop-color="rgb(50.390625%, 33.287048%, 83.677673%)" offset="0.75"/><stop stop-opacity="1" stop-color="rgb(51.171875%, 32.762146%, 83.934021%)" offset="0.753906"/><stop stop-opacity="1" stop-color="rgb(51.953125%, 32.23877%, 84.191895%)" offset="0.757812"/><stop stop-opacity="1" stop-color="rgb(52.734375%, 31.713867%, 84.448242%)" offset="0.761719"/><stop stop-opacity="1" stop-color="rgb(53.515625%, 31.190491%, 84.706116%)" offset="0.765625"/><stop stop-opacity="1" stop-color="rgb(54.296875%, 30.665588%, 84.962463%)" offset="0.769531"/><stop stop-opacity="1" stop-color="rgb(55.078125%, 30.142212%, 85.220337%)" offset="0.773438"/><stop stop-opacity="1" stop-color="rgb(55.859375%, 29.61731%, 85.476685%)" offset="0.777344"/><stop stop-opacity="1" stop-color="rgb(56.640625%, 29.092407%, 85.733032%)" offset="0.78125"/><stop stop-opacity="1" stop-color="rgb(57.421875%, 28.569031%, 85.990906%)" offset="0.785156"/><stop stop-opacity="1" stop-color="rgb(58.203125%, 28.044128%, 86.247253%)" offset="0.789062"/><stop stop-opacity="1" stop-color="rgb(58.984375%, 27.520752%, 86.505127%)" offset="0.792969"/><stop stop-opacity="1" stop-color="rgb(59.765625%, 26.99585%, 86.761475%)" offset="0.796875"/><stop stop-opacity="1" stop-color="rgb(60.546875%, 26.472473%, 87.019348%)" offset="0.800781"/><stop stop-opacity="1" stop-color="rgb(61.328125%, 25.947571%, 87.275696%)" offset="0.804688"/><stop stop-opacity="1" stop-color="rgb(62.109375%, 25.424194%, 87.533569%)" offset="0.808594"/><stop stop-opacity="1" stop-color="rgb(62.890625%, 24.899292%, 87.789917%)" offset="0.8125"/><stop stop-opacity="1" stop-color="rgb(63.671875%, 24.37439%, 88.046265%)" offset="0.816406"/><stop stop-opacity="1" stop-color="rgb(64.453125%, 23.851013%, 88.304138%)" offset="0.820312"/><stop stop-opacity="1" stop-color="rgb(65.234375%, 23.326111%, 88.560486%)" offset="0.824219"/><stop stop-opacity="1" stop-color="rgb(66.015625%, 22.802734%, 88.818359%)" offset="0.828125"/><stop stop-opacity="1" stop-color="rgb(66.796875%, 22.277832%, 89.074707%)" offset="0.832031"/><stop stop-opacity="1" stop-color="rgb(67.578125%, 21.754456%, 89.332581%)" offset="0.835938"/><stop stop-opacity="1" stop-color="rgb(68.359375%, 21.229553%, 89.588928%)" offset="0.839844"/><stop stop-opacity="1" stop-color="rgb(69.140625%, 20.706177%, 89.846802%)" offset="0.84375"/><stop stop-opacity="1" stop-color="rgb(69.921875%, 20.181274%, 90.103149%)" offset="0.847656"/><stop stop-opacity="1" stop-color="rgb(70.703125%, 19.656372%, 90.359497%)" offset="0.851562"/><stop stop-opacity="1" stop-color="rgb(71.484375%, 19.132996%, 90.617371%)" offset="0.855469"/><stop stop-opacity="1" stop-color="rgb(72.265625%, 18.608093%, 90.873718%)" offset="0.859375"/><stop stop-opacity="1" stop-color="rgb(73.046875%, 18.084717%, 91.131592%)" offset="0.863281"/><stop stop-opacity="1" stop-color="rgb(73.828125%, 17.559814%, 91.387939%)" offset="0.867188"/><stop stop-opacity="1" stop-color="rgb(74.609375%, 17.036438%, 91.645813%)" offset="0.871094"/><stop stop-opacity="1" stop-color="rgb(75.390625%, 16.511536%, 91.902161%)" offset="0.875"/><stop stop-opacity="1" stop-color="rgb(76.171875%, 15.988159%, 92.160034%)" offset="0.878906"/><stop stop-opacity="1" stop-color="rgb(76.953125%, 15.463257%, 92.416382%)" offset="0.882812"/><stop stop-opacity="1" stop-color="rgb(77.734375%, 14.93988%, 92.674255%)" offset="0.886719"/><stop stop-opacity="1" stop-color="rgb(78.515625%, 14.414978%, 92.930603%)" offset="0.890625"/><stop stop-opacity="1" stop-color="rgb(79.296875%, 13.890076%, 93.186951%)" offset="0.894531"/><stop stop-opacity="1" stop-color="rgb(80.078125%, 13.366699%, 93.444824%)" offset="0.898438"/><stop stop-opacity="1" stop-color="rgb(80.859375%, 12.841797%, 93.701172%)" offset="0.902344"/><stop stop-opacity="1" stop-color="rgb(81.640625%, 12.31842%, 93.959045%)" offset="0.90625"/><stop stop-opacity="1" stop-color="rgb(82.421875%, 11.793518%, 94.215393%)" offset="0.910156"/><stop stop-opacity="1" stop-color="rgb(83.203125%, 11.270142%, 94.473267%)" offset="0.914062"/><stop stop-opacity="1" stop-color="rgb(83.984375%, 10.745239%, 94.729614%)" offset="0.917969"/><stop stop-opacity="1" stop-color="rgb(84.765625%, 10.221863%, 94.987488%)" offset="0.921875"/><stop stop-opacity="1" stop-color="rgb(85.546875%, 9.69696%, 95.243835%)" offset="0.925781"/><stop stop-opacity="1" stop-color="rgb(86.328125%, 9.172058%, 95.500183%)" offset="0.929688"/><stop stop-opacity="1" stop-color="rgb(87.109375%, 8.648682%, 95.758057%)" offset="0.933594"/><stop stop-opacity="1" stop-color="rgb(87.890625%, 8.123779%, 96.014404%)" offset="0.9375"/><stop stop-opacity="1" stop-color="rgb(88.671875%, 7.600403%, 96.272278%)" offset="0.941406"/><stop stop-opacity="1" stop-color="rgb(89.453125%, 7.0755%, 96.528625%)" offset="0.945312"/><stop stop-opacity="1" stop-color="rgb(90.234375%, 6.552124%, 96.786499%)" offset="0.949219"/><stop stop-opacity="1" stop-color="rgb(91.015625%, 6.027222%, 97.042847%)" offset="0.953125"/><stop stop-opacity="1" stop-color="rgb(91.796875%, 5.503845%, 97.30072%)" offset="0.957031"/><stop stop-opacity="1" stop-color="rgb(92.578125%, 4.978943%, 97.557068%)" offset="0.960938"/><stop stop-opacity="1" stop-color="rgb(93.359375%, 4.454041%, 97.813416%)" offset="0.964844"/><stop stop-opacity="1" stop-color="rgb(94.140625%, 3.930664%, 98.071289%)" offset="0.96875"/><stop stop-opacity="1" stop-color="rgb(94.921875%, 3.405762%, 98.327637%)" offset="0.972656"/><stop stop-opacity="1" stop-color="rgb(95.703125%, 2.882385%, 98.58551%)" offset="0.976562"/><stop stop-opacity="1" stop-color="rgb(96.484375%, 2.357483%, 98.841858%)" offset="0.980469"/><stop stop-opacity="1" stop-color="rgb(97.265625%, 1.834106%, 99.099731%)" offset="0.984375"/><stop stop-opacity="1" stop-color="rgb(98.046875%, 1.309204%, 99.356079%)" offset="0.988281"/><stop stop-opacity="1" stop-color="rgb(98.828125%, 0.785828%, 99.613953%)" offset="0.992188"/><stop stop-opacity="1" stop-color="rgb(99.609375%, 0.260925%, 99.8703%)" offset="0.996094"/><stop stop-opacity="1" stop-color="rgb(100%, 0%, 100%)" offset="1"/></radialGradient></defs><rect x="-37.5" fill="url(#08d8e895b0)" width="450" y="-37.499999" height="449.999989"/><g fill="#ff3131" fill-opacity="1"><g transform="translate(21.510066, 195.039924)"><g><path d="M 25.859375 -27.875 C 24.941406 -31.382812 23.421875 -33.984375 21.296875 -35.671875 C 19.171875 -37.367188 16.554688 -37.8125 13.453125 -37 C 12.441406 -36.726562 11.507812 -36.441406 10.65625 -36.140625 C 9.8125 -35.847656 9.125 -35.578125 8.59375 -35.328125 L 13.96875 -14.8125 C 14.789062 -14.550781 15.816406 -14.414062 17.046875 -14.40625 C 18.273438 -14.394531 19.472656 -14.546875 20.640625 -14.859375 C 26.023438 -16.265625 27.765625 -20.601562 25.859375 -27.875 Z M 37.375 -31.21875 C 38.1875 -28.113281 38.546875 -25.191406 38.453125 -22.453125 C 38.359375 -19.710938 37.8125 -17.234375 36.8125 -15.015625 C 35.820312 -12.796875 34.363281 -10.894531 32.4375 -9.3125 C 30.519531 -7.726562 28.140625 -6.5625 25.296875 -5.8125 C 23.710938 -5.40625 22.191406 -5.171875 20.734375 -5.109375 C 19.285156 -5.054688 17.851562 -5.144531 16.4375 -5.375 L 20.390625 9.734375 L 9.015625 12.71875 L -4.8125 -40.125 C -3.875 -40.695312 -2.78125 -41.296875 -1.53125 -41.921875 C -0.28125 -42.554688 1.039062 -43.160156 2.4375 -43.734375 C 3.832031 -44.316406 5.265625 -44.867188 6.734375 -45.390625 C 8.210938 -45.921875 9.632812 -46.363281 11 -46.71875 C 14.300781 -47.582031 17.378906 -47.851562 20.234375 -47.53125 C 23.085938 -47.21875 25.632812 -46.394531 27.875 -45.0625 C 30.125 -43.726562 32.054688 -41.882812 33.671875 -39.53125 C 35.296875 -37.1875 36.53125 -34.414062 37.375 -31.21875 Z M 37.375 -31.21875 "/></g></g></g><g fill="#ff914d" fill-opacity="1"><g transform="translate(67.555663, 182.98794)"><g><path d="M 21.640625 -37.765625 C 20.566406 -37.753906 19.304688 -37.707031 17.859375 -37.625 C 16.410156 -37.550781 14.898438 -37.304688 13.328125 -36.890625 C 12.609375 -36.703125 11.769531 -36.410156 10.8125 -36.015625 C 9.851562 -35.628906 9.144531 -35.300781 8.6875 -35.03125 L 16.703125 -4.375 L 5.328125 -1.390625 L -4.609375 -39.359375 C -2.753906 -40.617188 -0.523438 -41.925781 2.078125 -43.28125 C 4.679688 -44.644531 7.6875 -45.769531 11.09375 -46.65625 C 11.695312 -46.820312 12.441406 -46.976562 13.328125 -47.125 C 14.210938 -47.269531 15.101562 -47.390625 16 -47.484375 C 16.894531 -47.585938 17.796875 -47.660156 18.703125 -47.703125 C 19.617188 -47.753906 20.421875 -47.734375 21.109375 -47.640625 Z M 21.640625 -37.765625 "/></g></g></g><g fill="#ffde59" fill-opacity="1"><g transform="translate(99.73172, 174.566172)"><g><path d="M 37.59375 -31.359375 C 38.414062 -28.203125 38.710938 -25.191406 38.484375 -22.328125 C 38.253906 -19.472656 37.519531 -16.890625 36.28125 -14.578125 C 35.039062 -12.273438 33.34375 -10.296875 31.1875 -8.640625 C 29.03125 -6.992188 26.457031 -5.773438 23.46875 -4.984375 C 20.519531 -4.210938 17.703125 -4.019531 15.015625 -4.40625 C 12.335938 -4.800781 9.890625 -5.695312 7.671875 -7.09375 C 5.460938 -8.5 3.53125 -10.382812 1.875 -12.75 C 0.226562 -15.113281 -1.003906 -17.875 -1.828125 -21.03125 C -2.660156 -24.175781 -2.921875 -27.175781 -2.609375 -30.03125 C -2.296875 -32.882812 -1.5 -35.453125 -0.21875 -37.734375 C 1.050781 -40.023438 2.757812 -41.992188 4.90625 -43.640625 C 7.050781 -45.296875 9.550781 -46.492188 12.40625 -47.234375 C 15.300781 -47.992188 18.085938 -48.179688 20.765625 -47.796875 C 23.453125 -47.421875 25.898438 -46.539062 28.109375 -45.15625 C 30.316406 -43.78125 32.238281 -41.921875 33.875 -39.578125 C 35.519531 -37.242188 36.757812 -34.503906 37.59375 -31.359375 Z M 26 -28.328125 C 25.082031 -31.828125 23.660156 -34.394531 21.734375 -36.03125 C 19.816406 -37.675781 17.5625 -38.160156 14.96875 -37.484375 C 12.363281 -36.804688 10.613281 -35.273438 9.71875 -32.890625 C 8.832031 -30.515625 8.847656 -27.578125 9.765625 -24.078125 C 10.679688 -20.566406 12.113281 -17.960938 14.0625 -16.265625 C 16.019531 -14.578125 18.300781 -14.070312 20.90625 -14.75 C 23.5 -15.425781 25.222656 -16.976562 26.078125 -19.40625 C 26.941406 -21.84375 26.914062 -24.816406 26 -28.328125 Z M 26 -28.328125 "/></g></g></g><g fill="#00ff00" fill-opacity="1"><g transform="translate(146.016723, 162.451526)"><g><path d="M -4.8125 -40.125 C -3.019531 -41.195312 -0.660156 -42.375 2.265625 -43.65625 C 5.191406 -44.9375 8.332031 -46.019531 11.6875 -46.90625 C 15.09375 -47.789062 18.039062 -48.082031 20.53125 -47.78125 C 23.019531 -47.488281 25.140625 -46.703125 26.890625 -45.421875 C 28.640625 -44.140625 30.085938 -42.453125 31.234375 -40.359375 C 32.390625 -38.265625 33.328125 -35.84375 34.046875 -33.09375 L 39.96875 -10.453125 L 28.59375 -7.484375 L 23.015625 -28.765625 C 22.066406 -32.421875 20.910156 -34.878906 19.546875 -36.140625 C 18.179688 -37.410156 16.175781 -37.703125 13.53125 -37.015625 C 12.71875 -36.804688 11.863281 -36.546875 10.96875 -36.234375 C 10.070312 -35.921875 9.28125 -35.617188 8.59375 -35.328125 L 16.703125 -4.375 L 5.328125 -1.390625 Z M -4.8125 -40.125 "/></g></g></g><g fill="#004aad" fill-opacity="1"><g transform="translate(190.929137, 150.696141)"><g><path d="M 37.59375 -31.359375 C 38.414062 -28.203125 38.710938 -25.191406 38.484375 -22.328125 C 38.253906 -19.472656 37.519531 -16.890625 36.28125 -14.578125 C 35.039062 -12.273438 33.34375 -10.296875 31.1875 -8.640625 C 29.03125 -6.992188 26.457031 -5.773438 23.46875 -4.984375 C 20.519531 -4.210938 17.703125 -4.019531 15.015625 -4.40625 C 12.335938 -4.800781 9.890625 -5.695312 7.671875 -7.09375 C 5.460938 -8.5 3.53125 -10.382812 1.875 -12.75 C 0.226562 -15.113281 -1.003906 -17.875 -1.828125 -21.03125 C -2.660156 -24.175781 -2.921875 -27.175781 -2.609375 -30.03125 C -2.296875 -32.882812 -1.5 -35.453125 -0.21875 -37.734375 C 1.050781 -40.023438 2.757812 -41.992188 4.90625 -43.640625 C 7.050781 -45.296875 9.550781 -46.492188 12.40625 -47.234375 C 15.300781 -47.992188 18.085938 -48.179688 20.765625 -47.796875 C 23.453125 -47.421875 25.898438 -46.539062 28.109375 -45.15625 C 30.316406 -43.78125 32.238281 -41.921875 33.875 -39.578125 C 35.519531 -37.242188 36.757812 -34.503906 37.59375 -31.359375 Z M 26 -28.328125 C 25.082031 -31.828125 23.660156 -34.394531 21.734375 -36.03125 C 19.816406 -37.675781 17.5625 -38.160156 14.96875 -37.484375 C 12.363281 -36.804688 10.613281 -35.273438 9.71875 -32.890625 C 8.832031 -30.515625 8.847656 -27.578125 9.765625 -24.078125 C 10.679688 -20.566406 12.113281 -17.960938 14.0625 -16.265625 C 16.019531 -14.578125 18.300781 -14.070312 20.90625 -14.75 C 23.5 -15.425781 25.222656 -16.976562 26.078125 -19.40625 C 26.941406 -21.84375 26.914062 -24.816406 26 -28.328125 Z M 26 -28.328125 "/></g></g></g><g fill="#5e17eb" fill-opacity="1"><g transform="translate(237.214145, 138.581493)"><g><path d="M 39.21875 -11.734375 C 37.4375 -10.671875 35.082031 -9.492188 32.15625 -8.203125 C 29.226562 -6.921875 26.085938 -5.84375 22.734375 -4.96875 C 19.328125 -4.070312 16.367188 -3.785156 13.859375 -4.109375 C 11.359375 -4.429688 9.234375 -5.242188 7.484375 -6.546875 C 5.734375 -7.859375 4.273438 -9.585938 3.109375 -11.734375 C 1.953125 -13.878906 1.015625 -16.320312 0.296875 -19.0625 L -5.546875 -41.40625 L 5.828125 -44.375 L 11.3125 -23.40625 C 12.269531 -19.75 13.441406 -17.234375 14.828125 -15.859375 C 16.222656 -14.484375 18.242188 -14.140625 20.890625 -14.828125 C 21.691406 -15.046875 22.539062 -15.3125 23.4375 -15.625 C 24.332031 -15.945312 25.128906 -16.25 25.828125 -16.53125 L 17.71875 -47.5 L 29.078125 -50.46875 Z M 39.21875 -11.734375 "/></g></g></g><g fill="#545454" fill-opacity="1"><g transform="translate(282.126558, 126.826109)"><g><path d="M -4.8125 -40.125 C -3.019531 -41.195312 -0.660156 -42.375 2.265625 -43.65625 C 5.191406 -44.9375 8.332031 -46.019531 11.6875 -46.90625 C 15.09375 -47.789062 18.039062 -48.082031 20.53125 -47.78125 C 23.019531 -47.488281 25.140625 -46.703125 26.890625 -45.421875 C 28.640625 -44.140625 30.085938 -42.453125 31.234375 -40.359375 C 32.390625 -38.265625 33.328125 -35.84375 34.046875 -33.09375 L 39.96875 -10.453125 L 28.59375 -7.484375 L 23.015625 -28.765625 C 22.066406 -32.421875 20.910156 -34.878906 19.546875 -36.140625 C 18.179688 -37.410156 16.175781 -37.703125 13.53125 -37.015625 C 12.71875 -36.804688 11.863281 -36.546875 10.96875 -36.234375 C 10.070312 -35.921875 9.28125 -35.617188 8.59375 -35.328125 L 16.703125 -4.375 L 5.328125 -1.390625 Z M -4.8125 -40.125 "/></g></g></g><g fill="#000000" fill-opacity="1"><g transform="translate(327.038971, 115.070724)"><g><path d="M 14.71875 -12.5625 C 16.800781 -13.113281 18.21875 -13.707031 18.96875 -14.34375 C 19.726562 -14.976562 19.953125 -15.878906 19.640625 -17.046875 C 19.410156 -17.953125 18.644531 -18.601562 17.34375 -19 C 16.050781 -19.40625 14.144531 -19.734375 11.625 -19.984375 C 9.6875 -20.191406 7.894531 -20.457031 6.25 -20.78125 C 4.613281 -21.113281 3.15625 -21.644531 1.875 -22.375 C 0.601562 -23.101562 -0.488281 -24.078125 -1.40625 -25.296875 C -2.332031 -26.523438 -3.046875 -28.109375 -3.546875 -30.046875 C -4.535156 -33.796875 -3.914062 -37.128906 -1.6875 -40.046875 C 0.53125 -42.960938 4.082031 -45.0625 8.96875 -46.34375 C 11.414062 -46.976562 13.8125 -47.375 16.15625 -47.53125 C 18.507812 -47.695312 20.414062 -47.695312 21.875 -47.53125 L 22.203125 -38.171875 C 20.753906 -38.265625 19.207031 -38.285156 17.5625 -38.234375 C 15.914062 -38.191406 14.128906 -37.921875 12.203125 -37.421875 C 8.640625 -36.484375 7.117188 -35.019531 7.640625 -33.03125 C 7.765625 -32.582031 7.945312 -32.195312 8.1875 -31.875 C 8.4375 -31.5625 8.832031 -31.300781 9.375 -31.09375 C 9.914062 -30.882812 10.628906 -30.691406 11.515625 -30.515625 C 12.398438 -30.347656 13.519531 -30.191406 14.875 -30.046875 C 17.601562 -29.785156 19.898438 -29.421875 21.765625 -28.953125 C 23.628906 -28.492188 25.160156 -27.863281 26.359375 -27.0625 C 27.566406 -26.269531 28.53125 -25.285156 29.25 -24.109375 C 29.96875 -22.941406 30.546875 -21.515625 30.984375 -19.828125 C 32.023438 -15.867188 31.320312 -12.484375 28.875 -9.671875 C 26.4375 -6.859375 22.5 -4.738281 17.0625 -3.3125 C 13.5 -2.382812 10.457031 -1.914062 7.9375 -1.90625 C 5.414062 -1.894531 3.644531 -1.976562 2.625 -2.15625 L 2.109375 -11.875 C 4.234375 -11.625 6.367188 -11.546875 8.515625 -11.640625 C 10.660156 -11.734375 12.726562 -12.039062 14.71875 -12.5625 Z M 14.71875 -12.5625 "/></g></g></g><g fill="#ffffff" fill-opacity="1"><g transform="translate(73.001923, 222.170174)"><g><path d="M 39.421875 6.15625 C 36.898438 10.707031 33.535156 13.375 29.328125 14.15625 C 25.128906 14.9375 21.207031 14.316406 17.5625 12.296875 C 13.925781 10.285156 11.320312 7.289062 9.75 3.3125 C 8.1875 -0.65625 8.664062 -4.914062 11.1875 -9.46875 C 13.707031 -14.03125 17.066406 -16.695312 21.265625 -17.46875 C 25.460938 -18.25 29.378906 -17.632812 33.015625 -15.625 C 36.660156 -13.601562 39.269531 -10.609375 40.84375 -6.640625 C 42.414062 -2.671875 41.941406 1.59375 39.421875 6.15625 Z M 39.421875 6.15625 "/></g></g></g><g fill="#ff5757" fill-opacity="1"><g transform="translate(110.325688, 242.829352)"><g><path d="M 89.234375 3.1875 C 86.367188 8.351562 83.09375 12.890625 79.40625 16.796875 C 75.726562 20.710938 71.507812 23.5625 66.75 25.34375 C 62 27.132812 56.617188 27.660156 50.609375 26.921875 C 44.609375 26.179688 37.867188 23.738281 30.390625 19.59375 C 23.515625 15.789062 18.054688 11.679688 14.015625 7.265625 C 9.984375 2.847656 6.960938 -1.363281 4.953125 -5.375 L 23.015625 -19.375 C 25.003906 -16.039062 27.300781 -12.789062 29.90625 -9.625 C 32.519531 -6.457031 35.800781 -3.78125 39.75 -1.59375 C 45.519531 1.59375 50.453125 2.46875 54.546875 1.03125 C 58.640625 -0.394531 62.53125 -4.441406 66.21875 -11.109375 L 104.1875 -79.71875 L 127.859375 -66.625 Z M 89.234375 3.1875 "/></g></g></g><g fill="#ffbd59" fill-opacity="1"><g transform="translate(190.601683, 287.263135)"><g><path d="M 50.8125 4.53125 C 54.164062 6.382812 57.082031 7.632812 59.5625 8.28125 C 62.039062 8.9375 64.203125 9.144531 66.046875 8.90625 C 67.890625 8.664062 69.425781 8.023438 70.65625 6.984375 C 71.894531 5.953125 72.960938 4.628906 73.859375 3.015625 C 75.765625 -0.429688 75.726562 -4.1875 73.75 -8.25 C 71.769531 -12.3125 67.5625 -17.84375 61.125 -24.84375 C 58.363281 -27.957031 55.695312 -31.25 53.125 -34.71875 C 50.550781 -38.1875 48.554688 -41.867188 47.140625 -45.765625 C 45.722656 -49.660156 45.09375 -53.78125 45.25 -58.125 C 45.40625 -62.46875 46.828125 -67.066406 49.515625 -71.921875 C 52.203125 -76.773438 55.535156 -80.644531 59.515625 -83.53125 C 63.492188 -86.414062 67.90625 -88.300781 72.75 -89.1875 C 77.601562 -90.070312 82.816406 -89.929688 88.390625 -88.765625 C 93.960938 -87.597656 99.734375 -85.363281 105.703125 -82.0625 C 112.785156 -78.132812 118.484375 -73.984375 122.796875 -69.609375 C 127.109375 -65.242188 130.429688 -61.226562 132.765625 -57.5625 L 115.609375 -42.671875 C 113.515625 -45.804688 110.992188 -48.945312 108.046875 -52.09375 C 105.097656 -55.25 101.09375 -58.226562 96.03125 -61.03125 C 90.363281 -64.164062 85.859375 -65.632812 82.515625 -65.4375 C 79.171875 -65.238281 76.601562 -63.523438 74.8125 -60.296875 C 73.75 -58.367188 73.304688 -56.492188 73.484375 -54.671875 C 73.671875 -52.859375 74.300781 -50.957031 75.375 -48.96875 C 76.457031 -46.976562 77.847656 -44.953125 79.546875 -42.890625 C 81.242188 -40.828125 83.15625 -38.613281 85.28125 -36.25 C 89.632812 -31.207031 93.285156 -26.578125 96.234375 -22.359375 C 99.191406 -18.148438 101.28125 -13.988281 102.5 -9.875 C 103.71875 -5.757812 104.003906 -1.566406 103.359375 2.703125 C 102.722656 6.972656 101.003906 11.640625 98.203125 16.703125 C 92.773438 26.515625 85.125 32.222656 75.25 33.828125 C 65.375 35.429688 53.503906 32.394531 39.640625 24.71875 C 34.992188 22.144531 30.953125 19.539062 27.515625 16.90625 C 24.078125 14.28125 21.140625 11.765625 18.703125 9.359375 C 16.265625 6.953125 14.257812 4.71875 12.6875 2.65625 C 11.125 0.601562 9.863281 -1.21875 8.90625 -2.8125 L 25.984375 -17.9375 C 28.171875 -14.476562 31.1875 -10.789062 35.03125 -6.875 C 38.882812 -2.957031 44.144531 0.84375 50.8125 4.53125 Z M 50.8125 4.53125 "/></g></g></g></svg>